<mxfile host="app.diagrams.net" modified="2021-02-10T07:55:06.822Z" agent="5.0 (Windows NT 10.0; Win64; x64) AppleWebKit/537.36 (KHTML, like Gecko) Chrome/88.0.4324.146 Safari/537.36" etag="vXx2fLLWebYanbpBI_r6" version="14.3.0" type="github">
  <diagram id="gwgoUvpOe-UOcPh5c2ci" name="Page-1">
    <mxGraphModel dx="868" dy="482" grid="1" gridSize="10" guides="1" tooltips="1" connect="1" arrows="1" fold="1" page="1" pageScale="1" pageWidth="850" pageHeight="1100" math="0" shadow="0">
      <root>
        <mxCell id="0" />
        <mxCell id="1" parent="0" />
        <mxCell id="XvmZsbn7FNvlLioDLdkM-1" value="Parking Lot Owner" style="shape=umlActor;verticalLabelPosition=bottom;verticalAlign=top;html=1;" vertex="1" parent="1">
          <mxGeometry x="410.5" y="30" width="55" height="110" as="geometry" />
        </mxCell>
        <mxCell id="XvmZsbn7FNvlLioDLdkM-2" value="Add parking lot" style="ellipse;whiteSpace=wrap;html=1;" vertex="1" parent="1">
          <mxGeometry x="368" y="220" width="140" height="70" as="geometry" />
        </mxCell>
        <mxCell id="XvmZsbn7FNvlLioDLdkM-6" style="edgeStyle=orthogonalEdgeStyle;rounded=0;orthogonalLoop=1;jettySize=auto;html=1;exitX=0.5;exitY=0;exitDx=0;exitDy=0;entryX=0.229;entryY=1;entryDx=0;entryDy=0;entryPerimeter=0;" edge="1" parent="1" source="XvmZsbn7FNvlLioDLdkM-3" target="XvmZsbn7FNvlLioDLdkM-2">
          <mxGeometry relative="1" as="geometry" />
        </mxCell>
        <mxCell id="XvmZsbn7FNvlLioDLdkM-3" value="Add address" style="ellipse;whiteSpace=wrap;html=1;" vertex="1" parent="1">
          <mxGeometry x="260" y="380" width="140" height="70" as="geometry" />
        </mxCell>
        <mxCell id="XvmZsbn7FNvlLioDLdkM-7" style="edgeStyle=orthogonalEdgeStyle;rounded=0;orthogonalLoop=1;jettySize=auto;html=1;exitX=0.5;exitY=0;exitDx=0;exitDy=0;entryX=0.657;entryY=1;entryDx=0;entryDy=0;entryPerimeter=0;" edge="1" parent="1" source="XvmZsbn7FNvlLioDLdkM-4" target="XvmZsbn7FNvlLioDLdkM-2">
          <mxGeometry relative="1" as="geometry" />
        </mxCell>
        <mxCell id="XvmZsbn7FNvlLioDLdkM-4" value="Add parking spots" style="ellipse;whiteSpace=wrap;html=1;" vertex="1" parent="1">
          <mxGeometry x="460" y="380" width="140" height="70" as="geometry" />
        </mxCell>
        <mxCell id="XvmZsbn7FNvlLioDLdkM-8" value="Extends" style="text;html=1;align=center;verticalAlign=middle;resizable=0;points=[];autosize=1;" vertex="1" parent="1">
          <mxGeometry x="340" y="310" width="60" height="20" as="geometry" />
        </mxCell>
        <mxCell id="XvmZsbn7FNvlLioDLdkM-9" value="Includes" style="text;html=1;align=center;verticalAlign=middle;resizable=0;points=[];autosize=1;" vertex="1" parent="1">
          <mxGeometry x="465" y="310" width="60" height="20" as="geometry" />
        </mxCell>
        <mxCell id="XvmZsbn7FNvlLioDLdkM-11" value="" style="endArrow=none;html=1;" edge="1" parent="1">
          <mxGeometry width="50" height="50" relative="1" as="geometry">
            <mxPoint x="437.5" y="210" as="sourcePoint" />
            <mxPoint x="437.5" y="160" as="targetPoint" />
          </mxGeometry>
        </mxCell>
      </root>
    </mxGraphModel>
  </diagram>
</mxfile>
